<?xml version="1.0" standalone="no"?>
<!DOCTYPE svg PUBLIC "-//W3C//DTD SVG 20010904//EN"
 "http://www.w3.org/TR/2001/REC-SVG-20010904/DTD/svg10.dtd">
<svg version="1.0" xmlns="http://www.w3.org/2000/svg"
 width="500.000000pt" height="500.000000pt" viewBox="0 0 500.000000 500.000000"
 preserveAspectRatio="xMidYMid meet">
<metadata>
Created by potrace 1.14, written by Peter Selinger 2001-2017
</metadata>
<g transform="translate(0.000000,500.000000) scale(0.100000,-0.100000)"
fill="#000000" stroke="none">
<path d="M1423 3867 l-903 -41 -5 -31 c-2 -16 -6 -103 -7 -193 l-3 -162 348 0
347 0 0 -22 c0 -13 9 -500 20 -1083 11 -583 20 -1079 20 -1102 l0 -43 175 0
c132 0 177 3 180 13 3 7 22 512 43 1124 20 611 40 1114 43 1117 3 4 157 9 343
13 l336 6 0 81 c0 45 3 145 7 224 l6 142 -24 -1 c-13 -1 -430 -20 -926 -42z"/>
<path d="M3340 3865 c-314 -67 -549 -273 -615 -540 -22 -88 -22 -248 0 -329
60 -224 216 -366 629 -573 328 -164 434 -230 529 -332 72 -77 108 -162 109
-254 0 -83 -19 -132 -69 -178 -126 -118 -441 -130 -637 -26 -108 57 -204 177
-257 322 -13 33 -23 61 -24 63 -2 2 -376 -176 -382 -182 -6 -5 47 -146 77
-206 97 -194 283 -363 481 -440 143 -55 261 -73 439 -67 124 3 175 10 255 31
303 79 514 268 571 512 24 102 15 293 -19 397 -66 202 -216 367 -480 524 -62
36 -200 112 -308 168 -239 125 -296 161 -376 238 -76 72 -97 121 -91 206 8
106 89 202 201 236 72 23 200 30 269 16 144 -30 268 -130 384 -309 4 -7 334
241 334 252 0 17 -63 120 -112 183 -90 117 -271 227 -448 274 -108 28 -359 36
-460 14z"/>
</g>
</svg>
